<?xml version="1.0" encoding="UTF-8" standalone="no"?>
<!DOCTYPE svg PUBLIC "-//W3C//DTD SVG 1.1//EN" "http://www.w3.org/Graphics/SVG/1.1/DTD/svg11.dtd">
<svg width="100%" height="100%" viewBox="0 0 1000 300" version="1.1" xmlns="http://www.w3.org/2000/svg" xmlns:xlink="http://www.w3.org/1999/xlink" xml:space="preserve" xmlns:serif="http://www.serif.com/" style="fill-rule:evenodd;clip-rule:evenodd;stroke-linejoin:round;stroke-miterlimit:2;">
    <rect x="0" y="0" width="1000" height="300" style="fill:white;"/>
    <rect x="0" y="0" width="1000" height="300" style="fill:url(#_Linear1);"/>
    <g transform="matrix(1,0,0,1,-101.12,-1)">
        <g transform="matrix(0.465486,0,0,0.465486,247.333,67.1772)">
            <text x="584px" y="150px" style="font-family:'HelveticaNeue-Medium', 'Helvetica Neue', sans-serif;font-weight:500;font-size:142.857px;fill:rgb(124,83,255);">gac</text>
        </g>
        <g transform="matrix(-4.65625,-5.70226e-16,5.70226e-16,-4.65625,447.004,126.161)">
            <g transform="matrix(1,0,0,1,-16,-16)">
                <path d="M10,4C8.355,4 7,5.355 7,7C7,8.292 7.844,9.394 9,9.813L9,22.188C7.844,22.606 7,23.708 7,25C7,26.645 8.355,28 10,28C11.645,28 13,26.645 13,25C13,23.708 12.156,22.606 11,22.188L11,17.875C12.281,19.188 14.071,20 16.031,20L19.188,20C19.606,21.156 20.708,22 22,22C23.645,22 25,20.645 25,19C25,17.355 23.645,16 22,16C20.708,16 19.606,16.844 19.188,18L16.031,18C13.266,18 11,15.734 11,12.969L11,9.813C12.156,9.394 13,8.292 13,7C13,5.355 11.645,4 10,4ZM10,6C10.564,6 11,6.436 11,7C11,7.564 10.564,8 10,8C9.436,8 9,7.564 9,7C9,6.436 9.436,6 10,6ZM22,18C22.564,18 23,18.436 23,19C23,19.564 22.564,20 22,20C21.436,20 21,19.564 21,19C21,18.436 21.436,18 22,18ZM10,24C10.564,24 11,24.436 11,25C11,25.564 10.564,26 10,26C9.436,26 9,25.564 9,25C9,24.436 9.436,24 10,24Z" style="fill:rgb(124,83,255);fill-rule:nonzero;"/>
            </g>
        </g>
    </g>
    <g transform="matrix(1,0,0,1,66.568,-82)">
        <text x="353px" y="260px" style="font-family:'HelveticaNeue-Light', 'Helvetica Neue';font-weight:300;font-size:24px;fill:rgb(124,83,255);">faster and formated git commit</text>
        <text x="671.264px" y="260px" style="font-family:'HelveticaNeue-Light', 'Helvetica Neue';font-weight:300;font-size:24px;fill:rgb(124,83,255);">s</text>
    </g>
    <defs>
        <linearGradient id="_Linear1" x1="0" y1="0" x2="1" y2="0" gradientUnits="userSpaceOnUse" gradientTransform="matrix(1000,0,0,300,0,0)"><stop offset="0" style="stop-color:white;stop-opacity:1"/><stop offset="0.63" style="stop-color:rgb(234,228,255);stop-opacity:0.88"/><stop offset="0.83" style="stop-color:rgb(181,158,255);stop-opacity:0.57"/><stop offset="1" style="stop-color:rgb(122,80,255);stop-opacity:0.23"/></linearGradient>
    </defs>
</svg>
